<svg width="20" height="14" viewBox="0 0 20 14" fill="none" xmlns="http://www.w3.org/2000/svg">
<path fill-rule="evenodd" clip-rule="evenodd" d="M0.875946 12.9595V0.743469H6.52322C8.33713 0.743469 9.8076 2.21394 9.8076 4.02785C9.8076 5.1805 9.45316 5.89451 8.15359 6.627C9.70872 7.33559 10.1406 8.31766 10.1406 9.6875C10.1406 11.5406 8.49441 12.9595 6.64134 12.9595H0.875946ZM3.26562 2.76562V5.70312H6.0625C6.0625 5.70312 7.42188 5.70312 7.42188 4.23438C7.42188 2.76562 6.0625 2.76562 6.0625 2.76562H3.26562ZM3.26562 10.8906V7.71875H6.26562C6.75 7.71875 7.76562 7.96875 7.76562 9.46875C7.76562 10.5812 6.76562 10.8802 6.26562 10.8906H3.26562Z" fill="white"/>
<path fill-rule="evenodd" clip-rule="evenodd" d="M15.25 4.10938C13.5312 4.10938 10.9844 5.34375 10.9844 8.625C10.9844 10.623 12.0781 13.1875 15.3594 13.1875C17.9844 13.1875 19.1927 11.2604 19.4688 10.2969H17C16.875 10.7344 16.3906 11.2188 15.3594 11.2188C13.8594 11.2188 13.3281 9.9375 13.25 9.29688H19.4688V8.625C19.4688 5.34375 16.9688 4.10938 15.25 4.10938ZM15.25 5.98438C13.85 5.98438 13.3333 7.14062 13.25 7.71875H17C17 7.14062 16.65 5.98438 15.25 5.98438Z" fill="white"/>
<path d="M12.2656 1.4375V2.95312H18.1562V1.4375H12.2656Z" fill="white"/>
</svg>
